<?xml version="1.0" standalone="no"?>
<!DOCTYPE svg PUBLIC "-//W3C//DTD SVG 20010904//EN"
 "http://www.w3.org/TR/2001/REC-SVG-20010904/DTD/svg10.dtd">
<svg version="1.0" xmlns="http://www.w3.org/2000/svg"
 width="144.000000pt" height="144.000000pt" viewBox="0 0 144.000000 144.000000"
 preserveAspectRatio="xMidYMid meet">
<g transform="translate(0.000000,144.000000) scale(0.100000,-0.100000)"
fill="#000000" stroke="none">
<path d="M605 1200 l-29 -30 44 -45 44 -45 -47 -48 -47 -48 30 -29 30 -29 43
42 c24 23 47 42 52 42 5 0 28 -19 52 -42 l43 -42 30 29 30 29 -47 48 -47 48
44 45 44 45 -30 30 -30 30 -44 -45 -44 -45 -46 45 -46 45 -29 -30z"/>
<path d="M602 837 l-32 -33 45 -44 45 -44 -45 -46 -45 -46 33 -32 33 -32 44
45 44 45 46 -45 46 -45 32 33 32 33 -45 44 -45 44 45 46 45 46 -33 32 -33 32
-44 -45 -44 -45 -46 45 -46 45 -32 -33z"/>
<path d="M597 473 l-27 -27 47 -48 47 -48 -44 -45 -44 -45 29 -30 29 -30 46
45 46 45 44 -45 44 -45 33 32 33 32 -45 46 -45 46 45 44 45 44 -30 30 -30 30
-45 -44 -45 -44 -43 42 c-23 23 -47 42 -53 42 -5 0 -22 -12 -37 -27z"/>
</g>
</svg>
